<?xml version="1.0" encoding="utf-8"?>
<!-- Generator: Adobe Illustrator 16.0.0, SVG Export Plug-In . SVG Version: 6.00 Build 0)  -->
<!DOCTYPE svg PUBLIC "-//W3C//DTD SVG 1.1//EN" "http://www.w3.org/Graphics/SVG/1.1/DTD/svg11.dtd">
<svg version="1.1" id="Layer_1" xmlns="http://www.w3.org/2000/svg" xmlns:xlink="http://www.w3.org/1999/xlink" x="0px" y="0px"
	 width="280px" height="280px" viewBox="0 0 280 280" enable-background="new 0 0 280 280" xml:space="preserve">
<g>
	<defs>
		<path id="SVGID_1_" d="M23.94,125.378h-1.736v-1.646h1.736V125.378z M23.94,128.668h-1.736v-1.646h1.736V128.668z M18.732,118.799
			h-1.738v-1.644h1.738V118.799z M18.732,122.089h-1.738v-1.645h1.738V122.089z M18.732,125.378h-1.738v-1.646h1.738V125.378z
			 M18.732,128.668h-1.738v-1.646h1.738V128.668z M13.522,122.089h-1.736v-1.645h1.736V122.089z M13.522,125.378h-1.736v-1.646
			h1.736V125.378z M13.522,128.668h-1.736v-1.646h1.736V128.668z M20.468,122.089v-4.935l-2.604-2.468l-2.604,2.468v1.644h-5.208
			v11.514h15.625v-8.224H20.468z"/>
	</defs>
	<use xlink:href="#SVGID_1_"  overflow="visible" fill-rule="evenodd" clip-rule="evenodd" fill="#999999"/>
	<clipPath id="SVGID_2_">
		<use xlink:href="#SVGID_1_"  overflow="visible"/>
	</clipPath>
	<rect x="5.454" y="110.092" clip-path="url(#SVGID_2_)" fill="#999999" width="24.818" height="24.816"/>
</g>
<g>
	<defs>
		<path id="SVGID_3_" d="M22.469,89.625c-0.495,0-0.923-0.212-1.275-0.495l-1.062-1.062l-1.064,1.062
			c-0.284,0.283-0.708,0.495-1.203,0.495s-0.919-0.212-1.275-0.495l-1.062-1.062l-1.065,1.062c-0.28,0.283-0.708,0.495-1.203,0.495
			c-0.992,0-1.771-0.78-1.771-1.77c0-0.993,0.779-1.773,1.771-1.773h9.211c0.992,0,1.771,0.781,1.771,1.773
			C24.24,88.845,23.461,89.625,22.469,89.625z M22.469,84.666h-3.896v-1.063h-1.418v1.063h-3.896c-1.771,0-3.188,1.416-3.188,3.189
			c0,1.134,0.567,2.053,1.417,2.62v4.818H24.24v-4.818c0.85-0.567,1.417-1.557,1.417-2.62C25.657,86.082,24.24,84.666,22.469,84.666
			z M17.863,82.895c0.566,0,1.064-0.497,1.064-1.062c0-0.214-0.073-0.355-0.146-0.567l-0.919-1.559l-0.919,1.559
			c-0.072,0.141-0.146,0.353-0.146,0.567C16.799,82.398,17.297,82.895,17.863,82.895z"/>
	</defs>
	<use xlink:href="#SVGID_3_"  overflow="visible" fill-rule="evenodd" clip-rule="evenodd" fill="#999999"/>
	<clipPath id="SVGID_4_">
		<use xlink:href="#SVGID_3_"  overflow="visible"/>
	</clipPath>
	<rect x="5.484" y="75.123" clip-path="url(#SVGID_4_)" fill="#999999" width="24.758" height="24.755"/>
</g>
<g>
	<defs>
		<path id="SVGID_5_" d="M17.863,54.264c-2.377,0-7.051,1.144-7.051,3.525v1.763h14.102v-1.763
			C24.914,55.408,20.24,54.264,17.863,54.264z M17.863,52.5c1.94,0,3.528-1.586,3.528-3.525c0-1.939-1.588-3.526-3.528-3.526
			s-3.528,1.587-3.528,3.526C14.335,50.914,15.923,52.5,17.863,52.5z"/>
	</defs>
	<use xlink:href="#SVGID_5_"  overflow="visible" fill-rule="evenodd" clip-rule="evenodd" fill="#999999"/>
	<clipPath id="SVGID_6_">
		<use xlink:href="#SVGID_5_"  overflow="visible"/>
	</clipPath>
	<rect x="6.664" y="41.302" clip-path="url(#SVGID_6_)" fill="#999999" width="22.398" height="22.397"/>
</g>
<g>
	<defs>
		<path id="SVGID_7_" d="M90.146,192.465c-0.006-1.437-1.259-2.678-2.687-2.668c-1.436,0.013-2.682,1.274-2.664,2.7
			c0.018,1.443,1.261,2.67,2.697,2.663C88.942,195.147,90.151,193.92,90.146,192.465z M93.866,187.36
			c-0.013,0.22-0.142,0.377-0.3,0.491c-0.47,0.337-0.481,0.732-0.226,1.229c0.258,0.498,0.483,1.02,0.666,1.547
			c0.179,0.518,0.507,0.727,1.004,0.669c0.538-0.061,0.737,0.191,0.712,0.726c-0.019,0.347-0.005,0.694-0.005,1.042
			c-0.002,0.404-0.179,0.629-0.585,0.568c-0.628-0.087-0.986,0.181-1.171,0.812c-0.125,0.433-0.308,0.854-0.502,1.261
			c-0.211,0.431-0.133,0.736,0.196,1.062c0.578,0.565,0.565,0.579,0.002,1.164c-0.084,0.087-0.171,0.18-0.26,0.27
			c-0.752,0.744-0.756,0.745-1.571,0.098c-0.197-0.157-0.392-0.217-0.634-0.109c-0.698,0.303-1.392,0.606-2.096,0.892
			c-0.395,0.163-0.417,0.49-0.417,0.851c-0.001,0.714-0.065,0.778-0.75,0.788c-0.332,0.002-0.665-0.011-1.001,0
			c-0.443,0.011-0.685-0.215-0.628-0.664c0.076-0.656-0.204-0.989-0.787-1.136c-0.185-0.044-0.366-0.124-0.537-0.217
			c-0.773-0.398-1.517-0.621-2.134,0.281c-0.051,0.075-0.187,0.087-0.282,0.125c-0.368-0.331-0.743-0.653-1.096-1.003
			c-0.513-0.505-0.521-0.583-0.004-1.069c0.412-0.387,0.478-0.767,0.14-1.219c-0.009-0.062-0.023-0.117-0.094-0.118l0.005,0.006
			c-0.047-0.483-0.349-0.868-0.473-1.317c-0.177-0.624-0.566-0.834-1.154-0.753c-0.121,0.015-0.243,0.011-0.366,0.015
			c-0.188-0.111-0.249-0.288-0.243-0.507c0.006-0.236,0.001-0.477,0.001-0.713c0-1.007,0-1.012,0.973-1.128
			c0.33-0.041,0.551-0.206,0.673-0.529c0.181-0.476,0.359-0.954,0.567-1.417c0.217-0.479,0.161-0.85-0.239-1.217
			c-0.522-0.479-0.503-0.589-0.004-1.083c0.241-0.238,0.497-0.464,0.736-0.708c0.279-0.284,0.569-0.309,0.816,0.003
			c0.409,0.515,0.843,0.545,1.394,0.244c0.498-0.27,1.031-0.461,1.56-0.666c0.385-0.149,0.541-0.394,0.535-0.829
			c-0.01-0.759,0.067-0.818,0.776-0.82c0.388,0,0.773,0.009,1.161,0c0.241-0.004,0.41,0.081,0.471,0.338
			c0.011,0.4-0.169,0.883,0.256,1.135c0.362,0.216,0.754,0.437,1.208,0.414c0,0-0.007-0.004-0.009-0.004
			c-0.006,0.088,0.061,0.105,0.121,0.131c0.613,0.344,1.199,0.525,1.704-0.208c0.149-0.213,0.43-0.262,0.611-0.08
			C93.028,186.441,93.578,186.771,93.866,187.36z"/>
	</defs>
	<use xlink:href="#SVGID_7_"  overflow="visible" fill-rule="evenodd" clip-rule="evenodd" fill="#999999"/>
	<clipPath id="SVGID_8_">
		<use xlink:href="#SVGID_7_"  overflow="visible"/>
	</clipPath>
	<rect x="75.96" y="180.965" clip-path="url(#SVGID_8_)" fill="#999999" width="23.08" height="23.07"/>
</g>
<g>
	<defs>
		<path id="SVGID_9_" d="M85.754,21.582v-7.858l5.237,3.929L85.754,21.582z M94.485,11.017c-0.524-0.174-3.755-0.35-6.985-0.35
			s-6.461,0.176-6.985,0.35c-1.396,0.437-1.747,3.492-1.747,6.635s0.351,6.199,1.747,6.635c0.524,0.174,3.755,0.35,6.985,0.35
			s6.461-0.176,6.985-0.35c1.396-0.436,1.747-3.492,1.747-6.635S95.882,11.454,94.485,11.017z"/>
	</defs>
	<use xlink:href="#SVGID_9_"  overflow="visible" fill-rule="evenodd" clip-rule="evenodd" fill="#999999"/>
	<clipPath id="SVGID_10_">
		<use xlink:href="#SVGID_9_"  overflow="visible"/>
	</clipPath>
	<rect x="74.402" y="6.301" clip-path="url(#SVGID_10_)" fill="#999999" width="26.195" height="22.702"/>
</g>
<g>
	<defs>
		<path id="SVGID_11_" d="M14.319,264.02l2.53,3.038l3.547-4.558l4.556,6.075H10.774L14.319,264.02z M26.976,269.589v-14.178
			c0-1.111-0.912-2.023-2.023-2.023H10.774c-1.111,0-2.023,0.912-2.023,2.023v14.178c0,1.111,0.912,2.023,2.023,2.023h14.178
			C26.063,271.612,26.976,270.7,26.976,269.589z"/>
	</defs>
	<use xlink:href="#SVGID_11_"  overflow="visible" fill-rule="evenodd" clip-rule="evenodd" fill="#999999"/>
	<clipPath id="SVGID_12_">
		<use xlink:href="#SVGID_11_"  overflow="visible"/>
	</clipPath>
	<rect x="3.688" y="248.324" clip-path="url(#SVGID_12_)" fill="#999999" width="28.352" height="28.352"/>
</g>
<g>
	<defs>
		<path id="SVGID_13_" d="M24.597,165.195H11.13v-10.583h13.467V165.195z M21.71,147.881v1.924h-7.693v-1.924h-1.924v1.924H11.13
			c-1.06,0-1.924,0.866-1.924,1.924v13.467c0,1.058,0.864,1.923,1.924,1.923h13.467c1.06,0,1.924-0.865,1.924-1.923v-13.467
			c0-1.058-0.864-1.924-1.924-1.924h-0.963v-1.924H21.71z M22.675,158.464h-4.812v4.806h4.812V158.464z"/>
	</defs>
	<use xlink:href="#SVGID_13_"  overflow="visible" fill-rule="evenodd" clip-rule="evenodd" fill="#999999"/>
	<clipPath id="SVGID_14_">
		<use xlink:href="#SVGID_13_"  overflow="visible"/>
	</clipPath>
	<rect x="4.397" y="143.071" clip-path="url(#SVGID_14_)" fill="#999999" width="26.932" height="28.858"/>
</g>
<g>
	<g>
		<defs>
			<path id="SVGID_15_" d="M11.164,190.532c0.18-0.159,0.344-0.332,0.546-0.474c1.793-1.304,3.601-2.605,5.401-3.908
				c0.57-0.41,0.938-0.412,1.505-0.005c1.869,1.347,3.738,2.697,5.602,4.05c0.135,0.096,0.23,0.229,0.345,0.337v0.34
				c-0.247,0.312-0.604,0.417-1.101,0.415c-3.721-0.014-7.435-0.014-11.153,0c-0.512,0.005-0.883-0.099-1.145-0.415V190.532"/>
		</defs>
		<use xlink:href="#SVGID_15_"  overflow="visible" fill-rule="evenodd" clip-rule="evenodd" fill="#999999"/>
		<clipPath id="SVGID_16_">
			<use xlink:href="#SVGID_15_"  overflow="visible"/>
		</clipPath>
		<rect x="7.442" y="182.12" clip-path="url(#SVGID_16_)" fill="#999999" width="20.842" height="12.889"/>
	</g>
	<g>
		<defs>
			<path id="SVGID_17_" d="M24.134,194.867c-1.825,1.324-3.655,2.646-5.487,3.966c-0.598,0.435-0.955,0.433-1.562-0.004
				c-1.848-1.337-3.698-2.667-5.544-4.005c-0.146-0.104-0.253-0.237-0.377-0.357v-0.286c0.197-0.33,0.527-0.471,1.043-0.469
				c3.754,0.013,7.502,0.014,11.253,0c0.497-0.002,0.855,0.104,1.103,0.411v0.344C24.417,194.598,24.295,194.747,24.134,194.867z"/>
		</defs>
		<use xlink:href="#SVGID_17_"  overflow="visible" fill-rule="evenodd" clip-rule="evenodd" fill="#999999"/>
		<clipPath id="SVGID_18_">
			<use xlink:href="#SVGID_17_"  overflow="visible"/>
		</clipPath>
		<rect x="7.442" y="189.989" clip-path="url(#SVGID_18_)" fill="#999999" width="20.842" height="12.89"/>
	</g>
</g>
<g>
	<g>
		<defs>
			<path id="SVGID_19_" d="M17.863,225.258c-1.271,0-2.242,0.971-2.242,2.242s0.971,2.242,2.242,2.242s2.242-0.971,2.242-2.242
				S19.135,225.258,17.863,225.258z M17.863,231.239c-2.094,0-3.739-1.646-3.739-3.739s1.646-3.739,3.739-3.739
				c2.093,0,3.739,1.646,3.739,3.739S19.956,231.239,17.863,231.239z M17.863,221.895c-3.739,0-6.954,2.312-8.224,5.605
				c1.27,3.293,4.484,5.605,8.224,5.605s6.954-2.312,8.224-5.605C24.817,224.207,21.603,221.895,17.863,221.895z"/>
		</defs>
		<use xlink:href="#SVGID_19_"  overflow="visible" fill-rule="evenodd" clip-rule="evenodd" fill="#999999"/>
		<clipPath id="SVGID_20_">
			<use xlink:href="#SVGID_19_"  overflow="visible"/>
		</clipPath>
		<rect x="6.522" y="218.777" clip-path="url(#SVGID_20_)" fill="#999999" width="22.682" height="17.445"/>
	</g>
</g>
<g>
	<defs>
		<polyline id="SVGID_21_" points="257.065,122.122 267.935,116.829 267.935,128.171 257.065,122.122 		"/>
	</defs>
	<clipPath id="SVGID_22_">
		<use xlink:href="#SVGID_21_"  overflow="visible"/>
	</clipPath>
	<rect x="250.363" y="110.129" clip-path="url(#SVGID_22_)" fill="#DD0E1E" width="24.273" height="24.741"/>
</g>
<g>
	<defs>
		<polyline id="SVGID_23_" points="222.065,122.122 232.935,116.829 232.935,128.171 222.065,122.122 		"/>
	</defs>
	<use xlink:href="#SVGID_23_"  overflow="visible" fill-rule="evenodd" clip-rule="evenodd" fill="#999999"/>
	<clipPath id="SVGID_24_">
		<use xlink:href="#SVGID_23_"  overflow="visible"/>
	</clipPath>
	<rect x="215.363" y="110.129" clip-path="url(#SVGID_24_)" fill="#999999" width="24.273" height="24.741"/>
</g>
<g>
	<defs>
		<path id="SVGID_25_" d="M91.366,257.032h-2.735v1.733h2.735c2.096,0,3.735,1.639,3.735,3.734s-1.64,3.734-3.735,3.734h-2.735
			v1.733h2.735c3.006,0,5.467-2.459,5.467-5.468S94.372,257.032,91.366,257.032z M80.34,262.5c0-2.096,1.64-3.734,3.735-3.734h2.735
			v-1.733h-2.735c-3.006,0-5.467,2.459-5.467,5.468s2.461,5.468,5.467,5.468h2.735v-1.733h-2.735
			C81.979,266.234,80.34,264.596,80.34,262.5z M84.075,263.41h7.291v-1.82h-7.291V263.41z"/>
	</defs>
	<use xlink:href="#SVGID_25_"  overflow="visible" fill-rule="evenodd" clip-rule="evenodd" fill="#999999"/>
	<clipPath id="SVGID_26_">
		<use xlink:href="#SVGID_25_"  overflow="visible"/>
	</clipPath>
	<rect x="74.404" y="252.825" clip-path="url(#SVGID_26_)" fill="#999999" width="26.633" height="19.35"/>
</g>
<g>
	<defs>
		<path id="SVGID_27_" d="M227.5,253.388c-4.797,0-8.634,3.837-8.634,8.635v6.713c0,1.63,1.248,2.877,2.878,2.877h2.88v-7.673
			h-3.839v-1.917c0-3.744,2.973-6.718,6.715-6.718c3.74,0,6.713,2.974,6.713,6.718v1.917h-3.836v7.673h2.879
			c1.629,0,2.878-1.247,2.878-2.877v-6.713C236.134,257.225,232.296,253.388,227.5,253.388z"/>
	</defs>
	<use xlink:href="#SVGID_27_"  overflow="visible" fill-rule="evenodd" clip-rule="evenodd" fill="#999999"/>
	<clipPath id="SVGID_28_">
		<use xlink:href="#SVGID_27_"  overflow="visible"/>
	</clipPath>
	<rect x="211.854" y="246.378" clip-path="url(#SVGID_28_)" fill="#999999" width="31.291" height="32.244"/>
</g>
<g>
	<defs>
		<path id="SVGID_29_" d="M227.5,220.818l2.309,6.073h-4.497L227.5,220.818z M224.462,229.078h6.075l1.096,2.675h2.549
			l-5.711-13.365h-1.821l-5.833,13.365h2.552L224.462,229.078z M218.995,234.182v2.431h17.01v-2.431H218.995z"/>
	</defs>
	<use xlink:href="#SVGID_29_"  overflow="visible" fill-rule="evenodd" clip-rule="evenodd" fill="#999999"/>
	<clipPath id="SVGID_30_">
		<use xlink:href="#SVGID_29_"  overflow="visible"/>
	</clipPath>
	<rect x="211.984" y="211.378" clip-path="url(#SVGID_30_)" fill="#999999" width="31.03" height="32.244"/>
</g>
<g>
	<defs>
		<path id="SVGID_31_" d="M92.115,95.194c0.849,0,1.539-0.693,1.539-1.539V81.345c0-0.846-0.69-1.539-1.539-1.539H87.5v5.387
			l-1.924-1.156l-1.924,1.156v-5.387h-0.767c-0.85,0-1.54,0.693-1.54,1.539v12.311c0,0.846,0.69,1.539,1.54,1.539H92.115z"/>
	</defs>
	<use xlink:href="#SVGID_31_"  overflow="visible" fill-rule="evenodd" clip-rule="evenodd" fill="#999999"/>
	<clipPath id="SVGID_32_">
		<use xlink:href="#SVGID_31_"  overflow="visible"/>
	</clipPath>
	<rect x="77.498" y="75.958" clip-path="url(#SVGID_32_)" fill="#999999" width="20.004" height="23.083"/>
</g>
<g>
	<defs>
		<path id="SVGID_33_" d="M162.2,164.157h-9.4v-7.832h9.4V164.157z M162.2,154.759h-0.784v-1.567c0-2.194-1.722-3.915-3.916-3.915
			c-2.193,0-3.916,1.721-3.916,3.915h1.489c0-1.329,1.096-2.428,2.427-2.428c1.332,0,2.427,1.099,2.427,2.428v1.567H152.8
			c-0.86,0-1.566,0.704-1.566,1.566v7.832c0,0.863,0.706,1.566,1.566,1.566h9.4c0.86,0,1.566-0.703,1.566-1.566v-7.832
			C163.767,155.463,163.061,154.759,162.2,154.759z M157.5,161.811c0.862,0,1.566-0.707,1.566-1.567
			c0-0.864-0.704-1.567-1.566-1.567s-1.566,0.703-1.566,1.567C155.934,161.104,156.638,161.811,157.5,161.811z"/>
	</defs>
	<use xlink:href="#SVGID_33_"  overflow="visible" fill-rule="evenodd" clip-rule="evenodd" fill="#999999"/>
	<clipPath id="SVGID_34_">
		<use xlink:href="#SVGID_33_"  overflow="visible"/>
	</clipPath>
	<rect x="146.666" y="144.706" clip-path="url(#SVGID_34_)" fill="#999999" width="21.668" height="25.587"/>
</g>
<g>
	<defs>
		<path id="SVGID_35_" d="M163.896,198.079h-12.793v-9.048h12.793V198.079z M163.896,184.921h-0.912v-1.645h-1.828v1.645h-7.312
			v-1.645h-1.828v1.645h-0.912c-1.005,0-1.827,0.74-1.827,1.644v11.515c0,0.905,0.822,1.645,1.827,1.645h12.793
			c1.005,0,1.827-0.739,1.827-1.645v-11.515C165.724,185.661,164.901,184.921,163.896,184.921z"/>
	</defs>
	<use xlink:href="#SVGID_35_"  overflow="visible" fill-rule="evenodd" clip-rule="evenodd" fill="#999999"/>
	<clipPath id="SVGID_36_">
		<use xlink:href="#SVGID_35_"  overflow="visible"/>
	</clipPath>
	<rect x="144.707" y="178.706" clip-path="url(#SVGID_36_)" fill="#999999" width="25.586" height="25.588"/>
</g>
<g>
	<defs>
		<path id="SVGID_37_" d="M194.926,154.758h-4.853v-1.567c0-1.329,1.095-2.427,2.426-2.427c1.332,0,2.427,1.098,2.427,2.427V154.758
			z M192.499,161.811c-0.861,0-1.565-0.707-1.565-1.567c0-0.864,0.704-1.567,1.565-1.567c0.86,0,1.567,0.703,1.567,1.567
			C194.066,161.104,193.359,161.811,192.499,161.811z M197.198,154.758h-0.782v-1.567c0-2.192-1.723-3.914-3.917-3.914
			c-2.192,0-3.915,1.722-3.915,3.914v1.567H187.8c-0.86,0-1.566,0.705-1.566,1.566v7.833c0,0.863,0.706,1.566,1.566,1.566h9.398
			c0.861,0,1.567-0.703,1.567-1.566v-7.833C198.766,155.463,198.06,154.758,197.198,154.758z"/>
	</defs>
	<clipPath id="SVGID_38_">
		<use xlink:href="#SVGID_37_"  overflow="visible"/>
	</clipPath>
	<rect x="181.666" y="144.707" clip-path="url(#SVGID_38_)" fill="#DD0E1E" width="21.668" height="25.587"/>
</g>
<g>
	<defs>
		<path id="SVGID_39_" d="M163.896,219.276h-12.793c-1.006,0-1.827,0.821-1.827,1.827v3.654h1.827v-3.654h12.793v12.793h-12.793
			v-3.654h-1.827v3.654c0,1.006,0.821,1.827,1.827,1.827h12.793c1.006,0,1.827-0.821,1.827-1.827v-12.793
			C165.724,220.098,164.902,219.276,163.896,219.276z M155.764,230.793l1.279,1.276l4.57-4.569l-4.57-4.569l-1.279,1.276
			l2.376,2.381h-8.863v1.824h8.863L155.764,230.793z"/>
	</defs>
	<use xlink:href="#SVGID_39_"  overflow="visible" fill-rule="evenodd" clip-rule="evenodd" fill="#999999"/>
	<clipPath id="SVGID_40_">
		<use xlink:href="#SVGID_39_"  overflow="visible"/>
	</clipPath>
	<rect x="144.438" y="214.438" clip-path="url(#SVGID_40_)" fill="#999999" width="26.125" height="26.125"/>
</g>
<g>
	<defs>
		<path id="SVGID_41_" d="M155.937,11.048h-4.687c-0.86,0-1.562,0.742-1.562,1.651v9.908c0,0.908,0.702,1.65,1.562,1.65h12.5
			c0.86,0,1.562-0.742,1.562-1.65v-8.256c0-0.909-0.702-1.652-1.562-1.652h-6.25L155.937,11.048z"/>
	</defs>
	<use xlink:href="#SVGID_41_"  overflow="visible" fill-rule="evenodd" clip-rule="evenodd" fill="#999999"/>
	<clipPath id="SVGID_42_">
		<use xlink:href="#SVGID_41_"  overflow="visible"/>
	</clipPath>
	<rect x="145.9" y="7.263" clip-path="url(#SVGID_42_)" fill="#999999" width="23.199" height="20.778"/>
</g>
<g>
	<defs>
		<path id="SVGID_43_" d="M161.842,49.827h-6.078v-1.783h6.078V49.827z M161.842,53.392h-6.078v-1.783h6.078V53.392z
			 M161.842,56.956h-6.078v-1.783h6.078V56.956z M154.894,49.827h-1.735v-1.783h1.735V49.827z M154.894,53.392h-1.735v-1.783h1.735
			V53.392z M154.894,56.956h-1.735v-1.783h1.735V56.956z M163.577,44.479h-12.154c-0.955,0-1.735,0.803-1.735,1.784v12.474
			c0,0.981,0.78,1.784,1.735,1.784h12.154c0.955,0,1.735-0.803,1.735-1.784V46.263C165.312,45.282,164.532,44.479,163.577,44.479z"
			/>
	</defs>
	<use xlink:href="#SVGID_43_"  overflow="visible" fill-rule="evenodd" clip-rule="evenodd" fill="#999999"/>
	<clipPath id="SVGID_44_">
		<use xlink:href="#SVGID_43_"  overflow="visible"/>
	</clipPath>
	<rect x="145.091" y="39.884" clip-path="url(#SVGID_44_)" fill="#999999" width="24.818" height="25.232"/>
</g>
<g>
	<defs>
		<path id="SVGID_45_" d="M89.985,54.228c-2.236,0-6.626,1.124-6.626,3.458v1.728h13.253v-1.728
			C96.612,55.352,92.221,54.228,89.985,54.228z M82.53,50.771v-2.592h-1.657v2.592h-2.485V52.5h2.485v2.592h1.657V52.5h2.484v-1.729
			H82.53z M89.985,52.5c1.821,0,3.313-1.557,3.313-3.457c0-1.902-1.492-3.457-3.313-3.457c-1.823,0-3.313,1.555-3.313,3.457
			C86.672,50.943,88.162,52.5,89.985,52.5z"/>
	</defs>
	<use xlink:href="#SVGID_45_"  overflow="visible" fill-rule="evenodd" clip-rule="evenodd" fill="#999999"/>
	<clipPath id="SVGID_46_">
		<use xlink:href="#SVGID_45_"  overflow="visible"/>
	</clipPath>
	<rect x="74.426" y="41.624" clip-path="url(#SVGID_46_)" fill="#999999" width="26.148" height="21.752"/>
</g>
<g>
	<defs>
		<path id="SVGID_47_" d="M58.691,125.378h-1.737v-1.646h1.737V125.378z M58.691,128.668h-1.737v-1.646h1.737V128.668z
			 M53.483,118.799h-1.738v-1.644h1.738V118.799z M53.483,122.089h-1.738v-1.645h1.738V122.089z M53.483,125.378h-1.738v-1.646
			h1.738V125.378z M53.483,128.668h-1.738v-1.646h1.738V128.668z M48.274,122.089h-1.737v-1.645h1.737V122.089z M48.274,125.378
			h-1.737v-1.646h1.737V125.378z M48.274,128.668h-1.737v-1.646h1.737V128.668z M55.219,122.089v-4.935l-2.604-2.468l-2.604,2.468
			v1.644h-5.208v11.514h15.625v-8.224H55.219z"/>
	</defs>
	<use xlink:href="#SVGID_47_"  overflow="visible" fill-rule="evenodd" clip-rule="evenodd" fill="#DD0E1E"/>
	<clipPath id="SVGID_48_">
		<use xlink:href="#SVGID_47_"  overflow="visible"/>
	</clipPath>
	<rect x="40.205" y="110.092" clip-path="url(#SVGID_48_)" fill="#DD0E1E" width="24.818" height="24.816"/>
</g>
<g>
	<defs>
		<path id="SVGID_49_" d="M57.221,89.625c-0.496,0-0.922-0.212-1.276-0.495l-1.063-1.062l-1.062,1.062
			c-0.283,0.283-0.709,0.495-1.204,0.495s-0.921-0.212-1.276-0.495l-1.061-1.062l-1.063,1.062c-0.284,0.283-0.71,0.495-1.206,0.495
			c-0.99,0-1.77-0.78-1.77-1.77c0-0.993,0.779-1.773,1.77-1.773h9.213c0.99,0,1.77,0.781,1.77,1.773
			C58.99,88.845,58.211,89.625,57.221,89.625z M57.221,84.666h-3.897v-1.063h-1.418v1.063h-3.897c-1.77,0-3.188,1.416-3.188,3.189
			c0,1.134,0.566,2.053,1.418,2.62v4.818H58.99v-4.818c0.852-0.567,1.418-1.557,1.418-2.62
			C60.408,86.082,58.99,84.666,57.221,84.666z M52.614,82.895c0.565,0,1.064-0.497,1.064-1.062c0-0.214-0.071-0.355-0.144-0.567
			l-0.921-1.559l-0.921,1.559c-0.072,0.141-0.144,0.353-0.144,0.567C51.55,82.398,52.049,82.895,52.614,82.895z"/>
	</defs>
	<use xlink:href="#SVGID_49_"  overflow="visible" fill-rule="evenodd" clip-rule="evenodd" fill="#DD0E1E"/>
	<clipPath id="SVGID_50_">
		<use xlink:href="#SVGID_49_"  overflow="visible"/>
	</clipPath>
	<rect x="40.235" y="75.123" clip-path="url(#SVGID_50_)" fill="#DD0E1E" width="24.758" height="24.755"/>
</g>
<g>
	<defs>
		<path id="SVGID_51_" d="M52.614,54.264c-2.378,0-7.05,1.144-7.05,3.525v1.763h14.1v-1.763
			C59.664,55.408,54.992,54.264,52.614,54.264z M52.614,52.5c1.939,0,3.527-1.586,3.527-3.525c0-1.939-1.588-3.526-3.527-3.526
			s-3.527,1.587-3.527,3.526C49.087,50.914,50.675,52.5,52.614,52.5z"/>
	</defs>
	<use xlink:href="#SVGID_51_"  overflow="visible" fill-rule="evenodd" clip-rule="evenodd" fill="#DD0E1E"/>
	<clipPath id="SVGID_52_">
		<use xlink:href="#SVGID_51_"  overflow="visible"/>
	</clipPath>
	<rect x="41.415" y="41.302" clip-path="url(#SVGID_52_)" fill="#DD0E1E" width="22.398" height="22.397"/>
</g>
<g>
	<defs>
		<path id="SVGID_53_" d="M125.146,192.465c-0.006-1.437-1.259-2.678-2.687-2.668c-1.436,0.013-2.682,1.274-2.664,2.7
			c0.017,1.443,1.261,2.67,2.698,2.663C123.941,195.147,125.151,193.92,125.146,192.465z M128.866,187.36
			c-0.013,0.22-0.142,0.377-0.3,0.491c-0.47,0.337-0.481,0.732-0.226,1.229c0.258,0.498,0.483,1.02,0.666,1.547
			c0.182,0.518,0.506,0.727,1.004,0.669c0.538-0.061,0.737,0.191,0.711,0.726c-0.018,0.347-0.002,0.694-0.004,1.042
			c-0.001,0.404-0.179,0.629-0.585,0.568c-0.628-0.087-0.986,0.181-1.171,0.812c-0.124,0.433-0.308,0.854-0.503,1.261
			c-0.211,0.431-0.132,0.736,0.198,1.062c0.578,0.565,0.564,0.579,0,1.164c-0.083,0.087-0.171,0.18-0.259,0.27
			c-0.753,0.744-0.757,0.745-1.572,0.098c-0.196-0.157-0.391-0.217-0.633-0.109c-0.698,0.303-1.393,0.606-2.096,0.892
			c-0.395,0.163-0.417,0.49-0.417,0.851c-0.001,0.714-0.066,0.778-0.748,0.788c-0.334,0.002-0.667-0.011-1.002,0
			c-0.444,0.011-0.686-0.215-0.629-0.664c0.076-0.656-0.203-0.989-0.786-1.136c-0.186-0.044-0.366-0.124-0.538-0.217
			c-0.773-0.398-1.516-0.621-2.134,0.281c-0.052,0.075-0.187,0.087-0.283,0.125c-0.367-0.331-0.742-0.653-1.093-1.003
			c-0.516-0.505-0.526-0.583-0.006-1.069c0.412-0.387,0.479-0.767,0.14-1.219c-0.008-0.062-0.023-0.117-0.095-0.118l0.006,0.006
			c-0.047-0.483-0.35-0.868-0.474-1.317c-0.171-0.624-0.565-0.834-1.153-0.753c-0.12,0.015-0.244,0.011-0.366,0.015
			c-0.188-0.111-0.25-0.288-0.242-0.507c0.003-0.236,0-0.477,0-0.713c0-1.007,0-1.012,0.973-1.128
			c0.328-0.041,0.55-0.206,0.673-0.529c0.182-0.476,0.357-0.954,0.568-1.417c0.216-0.479,0.158-0.85-0.24-1.217
			c-0.522-0.479-0.502-0.589-0.004-1.083c0.241-0.238,0.497-0.464,0.737-0.708c0.279-0.284,0.568-0.309,0.817,0.003
			c0.407,0.515,0.841,0.545,1.393,0.244c0.496-0.27,1.03-0.461,1.559-0.666c0.382-0.149,0.541-0.394,0.535-0.829
			c-0.01-0.759,0.066-0.818,0.776-0.82c0.388,0,0.773,0.009,1.161,0c0.241-0.004,0.409,0.081,0.471,0.338
			c0.011,0.4-0.169,0.883,0.256,1.135c0.362,0.216,0.754,0.437,1.208,0.414l-0.008-0.004c-0.005,0.088,0.061,0.105,0.12,0.131
			c0.613,0.344,1.198,0.525,1.705-0.208c0.148-0.213,0.428-0.262,0.609-0.08C128.03,186.441,128.577,186.771,128.866,187.36z"/>
	</defs>
	<use xlink:href="#SVGID_53_"  overflow="visible" fill-rule="evenodd" clip-rule="evenodd" fill="#DD0E1E"/>
	<clipPath id="SVGID_54_">
		<use xlink:href="#SVGID_53_"  overflow="visible"/>
	</clipPath>
	<rect x="110.96" y="180.965" clip-path="url(#SVGID_54_)" fill="#DD0E1E" width="23.08" height="23.07"/>
</g>
<g>
	<defs>
		<path id="SVGID_55_" d="M120.754,21.582v-7.858l5.237,3.929L120.754,21.582z M129.485,11.017c-0.524-0.174-3.755-0.35-6.985-0.35
			s-6.461,0.176-6.985,0.35c-1.396,0.437-1.746,3.492-1.746,6.635s0.35,6.199,1.746,6.635c0.524,0.174,3.755,0.35,6.985,0.35
			s6.461-0.176,6.985-0.35c1.396-0.436,1.747-3.492,1.747-6.635S130.882,11.454,129.485,11.017z"/>
	</defs>
	<use xlink:href="#SVGID_55_"  overflow="visible" fill-rule="evenodd" clip-rule="evenodd" fill="#DD0E1E"/>
	<clipPath id="SVGID_56_">
		<use xlink:href="#SVGID_55_"  overflow="visible"/>
	</clipPath>
	<rect x="109.402" y="6.301" clip-path="url(#SVGID_56_)" fill="#DD0E1E" width="26.195" height="22.702"/>
</g>
<g>
	<defs>
		<path id="SVGID_57_" d="M49.07,264.02l2.53,3.038l3.546-4.558l4.556,6.075H45.526L49.07,264.02z M61.727,269.589v-14.178
			c0-1.111-0.912-2.023-2.024-2.023H45.526c-1.112,0-2.024,0.912-2.024,2.023v14.178c0,1.111,0.912,2.023,2.024,2.023h14.176
			C60.814,271.612,61.727,270.7,61.727,269.589z"/>
	</defs>
	<use xlink:href="#SVGID_57_"  overflow="visible" fill-rule="evenodd" clip-rule="evenodd" fill="#DD0E1E"/>
	<clipPath id="SVGID_58_">
		<use xlink:href="#SVGID_57_"  overflow="visible"/>
	</clipPath>
	<rect x="38.439" y="248.324" clip-path="url(#SVGID_58_)" fill="#DD0E1E" width="28.35" height="28.352"/>
</g>
<g>
	<defs>
		<path id="SVGID_59_" d="M59.348,165.195H45.881v-10.583h13.467V165.195z M56.462,147.881v1.924h-7.695v-1.924h-1.924v1.924h-0.962
			c-1.059,0-1.924,0.866-1.924,1.924v13.467c0,1.058,0.865,1.923,1.924,1.923h13.467c1.059,0,1.924-0.865,1.924-1.923v-13.467
			c0-1.058-0.865-1.924-1.924-1.924h-0.962v-1.924H56.462z M57.425,158.464h-4.811v4.806h4.811V158.464z"/>
	</defs>
	<use xlink:href="#SVGID_59_"  overflow="visible" fill-rule="evenodd" clip-rule="evenodd" fill="#DD0E1E"/>
	<clipPath id="SVGID_60_">
		<use xlink:href="#SVGID_59_"  overflow="visible"/>
	</clipPath>
	<rect x="39.15" y="143.071" clip-path="url(#SVGID_60_)" fill="#DD0E1E" width="26.928" height="28.858"/>
</g>
<g>
	<g>
		<defs>
			<path id="SVGID_61_" d="M45.916,190.531c0.18-0.157,0.343-0.331,0.544-0.474c1.795-1.304,3.604-2.604,5.402-3.907
				c0.568-0.411,0.938-0.412,1.506-0.005c1.87,1.346,3.737,2.696,5.602,4.05c0.134,0.095,0.229,0.228,0.343,0.336v0.341
				c-0.245,0.312-0.603,0.416-1.101,0.414c-3.72-0.013-7.435-0.013-11.152,0c-0.511,0.004-0.883-0.099-1.144-0.414V190.531"/>
		</defs>
		<use xlink:href="#SVGID_61_"  overflow="visible" fill-rule="evenodd" clip-rule="evenodd" fill="#DD0E1E"/>
		<clipPath id="SVGID_62_">
			<use xlink:href="#SVGID_61_"  overflow="visible"/>
		</clipPath>
		<rect x="42.194" y="182.12" clip-path="url(#SVGID_62_)" fill="#DD0E1E" width="20.84" height="12.889"/>
	</g>
	<g>
		<defs>
			<path id="SVGID_63_" d="M58.885,194.869c-1.826,1.32-3.657,2.645-5.487,3.964c-0.597,0.433-0.955,0.433-1.561-0.005
				c-1.848-1.336-3.7-2.667-5.544-4.005c-0.145-0.105-0.254-0.237-0.377-0.356v-0.286c0.196-0.33,0.525-0.471,1.042-0.469
				c3.753,0.012,7.503,0.013,11.254,0c0.495-0.002,0.855,0.103,1.101,0.411v0.344C59.169,194.598,59.048,194.747,58.885,194.869z"/>
		</defs>
		<use xlink:href="#SVGID_63_"  overflow="visible" fill-rule="evenodd" clip-rule="evenodd" fill="#DD0E1E"/>
		<clipPath id="SVGID_64_">
			<use xlink:href="#SVGID_63_"  overflow="visible"/>
		</clipPath>
		<rect x="42.194" y="189.989" clip-path="url(#SVGID_64_)" fill="#DD0E1E" width="20.84" height="12.889"/>
	</g>
</g>
<g>
	<defs>
		<path id="SVGID_65_" d="M52.614,225.258c-1.271,0-2.243,0.971-2.243,2.242s0.972,2.242,2.243,2.242s2.241-0.971,2.241-2.242
			S53.886,225.258,52.614,225.258z M52.614,231.239c-2.094,0-3.738-1.646-3.738-3.739s1.645-3.739,3.738-3.739
			c2.093,0,3.738,1.646,3.738,3.739S54.707,231.239,52.614,231.239z M52.614,221.895c-3.738,0-6.954,2.312-8.224,5.605
			c1.27,3.293,4.485,5.605,8.224,5.605s6.954-2.312,8.224-5.605C59.568,224.207,56.353,221.895,52.614,221.895z"/>
	</defs>
	<use xlink:href="#SVGID_65_"  overflow="visible" fill-rule="evenodd" clip-rule="evenodd" fill="#DD0E1E"/>
	<clipPath id="SVGID_66_">
		<use xlink:href="#SVGID_65_"  overflow="visible"/>
	</clipPath>
	<rect x="41.273" y="218.777" clip-path="url(#SVGID_66_)" fill="#DD0E1E" width="22.682" height="17.445"/>
</g>
<g>
	<defs>
		<path id="SVGID_67_" d="M127.114,95.194c0.85,0,1.54-0.693,1.54-1.539V81.345c0-0.846-0.69-1.539-1.54-1.539H122.5v5.387
			l-1.924-1.156l-1.924,1.156v-5.387h-0.768c-0.849,0-1.539,0.693-1.539,1.539v12.311c0,0.846,0.69,1.539,1.539,1.539H127.114z"/>
	</defs>
	<use xlink:href="#SVGID_67_"  overflow="visible" fill-rule="evenodd" clip-rule="evenodd" fill="#DD0E1E"/>
	<clipPath id="SVGID_68_">
		<use xlink:href="#SVGID_67_"  overflow="visible"/>
	</clipPath>
	<rect x="112.498" y="75.958" clip-path="url(#SVGID_68_)" fill="#DD0E1E" width="20.004" height="23.083"/>
</g>
<g>
	<defs>
		<path id="SVGID_69_" d="M124.984,54.228c-2.235,0-6.625,1.124-6.625,3.458v1.728h13.251v-1.728
			C131.61,55.352,127.221,54.228,124.984,54.228z M117.53,50.771v-2.592h-1.658v2.592h-2.483V52.5h2.483v2.592h1.658V52.5h2.485
			v-1.729H117.53z M124.984,52.5c1.824,0,3.314-1.557,3.314-3.457c0-1.902-1.49-3.457-3.314-3.457c-1.822,0-3.313,1.555-3.313,3.457
			C121.671,50.943,123.162,52.5,124.984,52.5z"/>
	</defs>
	<use xlink:href="#SVGID_69_"  overflow="visible" fill-rule="evenodd" clip-rule="evenodd" fill="#DD0E1E"/>
	<clipPath id="SVGID_70_">
		<use xlink:href="#SVGID_69_"  overflow="visible"/>
	</clipPath>
	<rect x="109.428" y="41.624" clip-path="url(#SVGID_70_)" fill="#DD0E1E" width="26.146" height="21.752"/>
</g>
<g>
	<defs>
		<path id="SVGID_71_" d="M151.065,128.475v1.838h12.869v-1.838H151.065z M163.935,120.203h-3.678v-5.516h-5.514v5.516h-3.678
			l6.435,6.433L163.935,120.203z"/>
	</defs>
	<use xlink:href="#SVGID_71_"  overflow="visible" fill-rule="evenodd" clip-rule="evenodd" fill="#999999"/>
	<clipPath id="SVGID_72_">
		<use xlink:href="#SVGID_71_"  overflow="visible"/>
	</clipPath>
	<rect x="146.473" y="110.091" clip-path="url(#SVGID_72_)" fill="#999999" width="22.055" height="24.817"/>
</g>
<g>
	<defs>
		<path id="SVGID_73_" d="M163.577,80.556h-3.039l-0.868-0.869h-4.34l-0.867,0.869h-3.04v1.735h12.154V80.556z M152.292,93.577
			c0,0.954,0.778,1.736,1.737,1.736h6.941c0.959,0,1.738-0.782,1.738-1.736V83.159h-10.417V93.577z"/>
	</defs>
	<use xlink:href="#SVGID_73_"  overflow="visible" fill-rule="evenodd" clip-rule="evenodd" fill="#999999"/>
	<clipPath id="SVGID_74_">
		<use xlink:href="#SVGID_73_"  overflow="visible"/>
	</clipPath>
	<rect x="146.828" y="75.092" clip-path="url(#SVGID_74_)" fill="#999999" width="21.344" height="24.816"/>
</g>
<g>
	<defs>
		<path id="SVGID_75_" d="M126.146,257.032h-2.735v1.733h2.735c2.096,0,3.735,1.639,3.735,3.734s-1.64,3.734-3.735,3.734h-2.735
			v1.733h2.735c3.006,0,5.467-2.459,5.467-5.468S129.151,257.032,126.146,257.032z M115.119,262.5c0-2.096,1.64-3.734,3.735-3.734
			h2.735v-1.733h-2.735c-3.006,0-5.467,2.459-5.467,5.468s2.461,5.468,5.467,5.468h2.735v-1.733h-2.735
			C116.759,266.234,115.119,264.596,115.119,262.5z M118.854,263.41h7.291v-1.82h-7.291V263.41z"/>
	</defs>
	<use xlink:href="#SVGID_75_"  overflow="visible" fill-rule="evenodd" clip-rule="evenodd" fill="#DD0E1E"/>
	<clipPath id="SVGID_76_">
		<use xlink:href="#SVGID_75_"  overflow="visible"/>
	</clipPath>
	<rect x="109.184" y="252.825" clip-path="url(#SVGID_76_)" fill="#DD0E1E" width="26.633" height="19.35"/>
</g>
<g>
	<defs>
		<path id="SVGID_77_" d="M262.5,253.388c-4.797,0-8.634,3.837-8.634,8.635v6.713c0,1.63,1.248,2.877,2.878,2.877h2.88v-7.673
			h-3.839v-1.917c0-3.744,2.973-6.718,6.715-6.718c3.74,0,6.713,2.974,6.713,6.718v1.917h-3.836v7.673h2.879
			c1.629,0,2.878-1.247,2.878-2.877v-6.713C271.134,257.225,267.296,253.388,262.5,253.388z"/>
	</defs>
	<use xlink:href="#SVGID_77_"  overflow="visible" fill-rule="evenodd" clip-rule="evenodd" fill="#DD0E1E"/>
	<clipPath id="SVGID_78_">
		<use xlink:href="#SVGID_77_"  overflow="visible"/>
	</clipPath>
	<rect x="246.854" y="246.378" clip-path="url(#SVGID_78_)" fill="#DD0E1E" width="31.291" height="32.244"/>
</g>
<g>
	<defs>
		<path id="SVGID_79_" d="M262.5,220.818l2.309,6.073h-4.497L262.5,220.818z M259.462,229.078h6.075l1.096,2.675h2.549
			l-5.711-13.365h-1.821l-5.833,13.365h2.552L259.462,229.078z M253.995,234.182v2.431h17.01v-2.431H253.995z"/>
	</defs>
	<use xlink:href="#SVGID_79_"  overflow="visible" fill-rule="evenodd" clip-rule="evenodd" fill="#DD0E1E"/>
	<clipPath id="SVGID_80_">
		<use xlink:href="#SVGID_79_"  overflow="visible"/>
	</clipPath>
	<rect x="246.984" y="211.378" clip-path="url(#SVGID_80_)" fill="#DD0E1E" width="31.03" height="32.244"/>
</g>
<g>
	<defs>
		<path id="SVGID_81_" d="M198.896,198.079h-12.792v-9.048h12.792V198.079z M198.896,184.921h-0.912v-1.645h-1.828v1.645h-7.312
			v-1.645h-1.825v1.645h-0.914c-1.006,0-1.828,0.74-1.828,1.644v11.515c0,0.905,0.822,1.645,1.828,1.645h12.792
			c1.005,0,1.827-0.739,1.827-1.645v-11.515C200.724,185.661,199.901,184.921,198.896,184.921z"/>
	</defs>
	<use xlink:href="#SVGID_81_"  overflow="visible" fill-rule="evenodd" clip-rule="evenodd" fill="#DD0E1E"/>
	<clipPath id="SVGID_82_">
		<use xlink:href="#SVGID_81_"  overflow="visible"/>
	</clipPath>
	<rect x="179.706" y="178.706" clip-path="url(#SVGID_82_)" fill="#DD0E1E" width="25.586" height="25.588"/>
</g>
<g>
	<defs>
		<path id="SVGID_83_" d="M198.896,219.276h-12.793c-1.006,0-1.827,0.821-1.827,1.827v3.654h1.827v-3.654h12.793v12.793h-12.793
			v-3.654h-1.827v3.654c0,1.006,0.821,1.827,1.827,1.827h12.793c1.006,0,1.827-0.821,1.827-1.827v-12.793
			C200.724,220.098,199.902,219.276,198.896,219.276z M190.764,230.793l1.279,1.276l4.57-4.569l-4.57-4.569l-1.279,1.276
			l2.376,2.381h-8.863v1.824h8.863L190.764,230.793z"/>
	</defs>
	<use xlink:href="#SVGID_83_"  overflow="visible" fill-rule="evenodd" clip-rule="evenodd" fill="#DD0E1E"/>
	<clipPath id="SVGID_84_">
		<use xlink:href="#SVGID_83_"  overflow="visible"/>
	</clipPath>
	<rect x="179.438" y="214.438" clip-path="url(#SVGID_84_)" fill="#DD0E1E" width="26.125" height="26.125"/>
</g>
<g>
	<defs>
		<path id="SVGID_85_" d="M190.938,11.048h-4.688c-0.86,0-1.562,0.742-1.562,1.651v9.908c0,0.908,0.701,1.65,1.562,1.65h12.501
			c0.86,0,1.562-0.742,1.562-1.65v-8.256c0-0.909-0.701-1.652-1.562-1.652H192.5L190.938,11.048z"/>
	</defs>
	<use xlink:href="#SVGID_85_"  overflow="visible" fill-rule="evenodd" clip-rule="evenodd" fill="#DD0E1E"/>
	<clipPath id="SVGID_86_">
		<use xlink:href="#SVGID_85_"  overflow="visible"/>
	</clipPath>
	<rect x="180.9" y="7.263" clip-path="url(#SVGID_86_)" fill="#DD0E1E" width="23.197" height="20.778"/>
</g>
<g>
	<defs>
		<path id="SVGID_87_" d="M196.842,49.827h-6.078v-1.783h6.078V49.827z M196.842,53.392h-6.078v-1.783h6.078V53.392z
			 M196.842,56.956h-6.078v-1.783h6.078V56.956z M189.894,49.827h-1.735v-1.783h1.735V49.827z M189.894,53.392h-1.735v-1.783h1.735
			V53.392z M189.894,56.956h-1.735v-1.783h1.735V56.956z M198.577,44.479h-12.154c-0.955,0-1.735,0.803-1.735,1.784v12.474
			c0,0.981,0.78,1.784,1.735,1.784h12.154c0.955,0,1.735-0.803,1.735-1.784V46.263C200.312,45.282,199.532,44.479,198.577,44.479z"
			/>
	</defs>
	<use xlink:href="#SVGID_87_"  overflow="visible" fill-rule="evenodd" clip-rule="evenodd" fill="#DD0E1E"/>
	<clipPath id="SVGID_88_">
		<use xlink:href="#SVGID_87_"  overflow="visible"/>
	</clipPath>
	<rect x="180.091" y="39.884" clip-path="url(#SVGID_88_)" fill="#DD0E1E" width="24.818" height="25.232"/>
</g>
<g>
	<defs>
		<path id="SVGID_89_" d="M186.065,128.475v1.838h12.869v-1.838H186.065z M198.935,120.203h-3.677v-5.516h-5.515v5.516h-3.678
			l6.435,6.433L198.935,120.203z"/>
	</defs>
	<use xlink:href="#SVGID_89_"  overflow="visible" fill-rule="evenodd" clip-rule="evenodd" fill="#DD0E1E"/>
	<clipPath id="SVGID_90_">
		<use xlink:href="#SVGID_89_"  overflow="visible"/>
	</clipPath>
	<rect x="181.471" y="110.091" clip-path="url(#SVGID_90_)" fill="#DD0E1E" width="22.057" height="24.817"/>
</g>
<g>
	<defs>
		<path id="SVGID_91_" d="M198.577,80.556h-3.039l-0.868-0.869h-4.34l-0.867,0.869h-3.04v1.735h12.154V80.556z M187.292,93.577
			c0,0.954,0.778,1.736,1.737,1.736h6.941c0.959,0,1.737-0.782,1.737-1.736V83.159h-10.416V93.577z"/>
	</defs>
	<use xlink:href="#SVGID_91_"  overflow="visible" fill-rule="evenodd" clip-rule="evenodd" fill="#DD0E1E"/>
	<clipPath id="SVGID_92_">
		<use xlink:href="#SVGID_91_"  overflow="visible"/>
	</clipPath>
	<rect x="181.828" y="75.092" clip-path="url(#SVGID_92_)" fill="#DD0E1E" width="21.344" height="24.816"/>
</g>
<g>
	<defs>
		<path id="SVGID_93_" d="M232.562,158.514h-4.048v4.049h-2.027v-4.049h-4.048v-2.027h4.048v-4.048h2.027v4.048h4.048V158.514z
			 M234.589,148.388h-14.178c-1.111,0-2.023,0.912-2.023,2.024v14.176c0,1.112,0.912,2.024,2.023,2.024h14.178
			c1.111,0,2.023-0.912,2.023-2.024v-14.176C236.612,149.3,235.7,148.388,234.589,148.388z"/>
	</defs>
	<use xlink:href="#SVGID_93_"  overflow="visible" fill-rule="evenodd" clip-rule="evenodd" fill="#999999"/>
	<clipPath id="SVGID_94_">
		<use xlink:href="#SVGID_93_"  overflow="visible"/>
	</clipPath>
	<rect x="213.325" y="143.325" clip-path="url(#SVGID_94_)" fill="#999999" width="28.35" height="28.351"/>
</g>
<g>
	<defs>
		<path id="SVGID_95_" d="M267.562,158.514h-4.048v4.049h-2.027v-4.049h-4.048v-2.027h4.048v-4.049h2.027v4.049h4.048V158.514z
			 M269.589,148.388h-14.178c-1.111,0-2.023,0.912-2.023,2.024v14.176c0,1.112,0.912,2.024,2.023,2.024h14.178
			c1.111,0,2.023-0.912,2.023-2.024v-14.176C271.612,149.3,270.7,148.388,269.589,148.388z"/>
	</defs>
	<use xlink:href="#SVGID_95_"  overflow="visible" fill-rule="evenodd" clip-rule="evenodd" fill="#DD0E1E"/>
	<clipPath id="SVGID_96_">
		<use xlink:href="#SVGID_95_"  overflow="visible"/>
	</clipPath>
	<rect x="248.325" y="143.325" clip-path="url(#SVGID_96_)" fill="#DD0E1E" width="28.35" height="28.351"/>
</g>
<g>
	<g>
		<defs>
			<path id="SVGID_97_" d="M92.861,119.803h-9.87v-1.646h9.87V119.803z M89.573,124.746h-6.582v-1.646h6.582V124.746z
				 M82.991,120.628h9.87v1.646h-9.87V120.628z M94.506,114.859H81.349c-0.906,0-1.646,0.744-1.646,1.648v14.831l3.289-3.297h11.515
				c0.903,0,1.644-0.743,1.644-1.646v-9.887C96.149,115.603,95.409,114.859,94.506,114.859z"/>
		</defs>
		<use xlink:href="#SVGID_97_"  overflow="visible" fill-rule="evenodd" clip-rule="evenodd" fill="#999999"/>
		<clipPath id="SVGID_98_">
			<use xlink:href="#SVGID_97_"  overflow="visible"/>
		</clipPath>
		<rect x="76.274" y="111.428" clip-path="url(#SVGID_98_)" fill="#999999" width="23.303" height="23.342"/>
	</g>
	<circle fill="#999999" cx="96.103" cy="114.578" r="2.612"/>
	<path fill="#FFFFFF" d="M96.103,117.672c-1.706,0-3.097-1.388-3.097-3.094c0-1.707,1.391-3.095,3.097-3.095
		c1.704,0,3.094,1.388,3.094,3.095C99.196,116.285,97.807,117.672,96.103,117.672z M96.103,112.45c-1.174,0-2.128,0.955-2.128,2.128
		c0,1.173,0.954,2.126,2.128,2.126c1.172,0,2.127-0.954,2.127-2.126C98.229,113.405,97.274,112.45,96.103,112.45z"/>
</g>
<g>
	<g>
		<defs>
			<path id="SVGID_99_" d="M127.736,119.803h-9.869v-1.646h9.869V119.803z M124.448,124.746h-6.581v-1.646h6.581V124.746z
				 M117.867,120.628h9.869v1.646h-9.869V120.628z M129.38,114.859h-13.156c-0.905,0-1.646,0.744-1.646,1.648v14.831l3.289-3.297
				h11.513c0.905,0,1.646-0.743,1.646-1.646v-9.887C131.025,115.603,130.285,114.859,129.38,114.859z"/>
		</defs>
		<use xlink:href="#SVGID_99_"  overflow="visible" fill-rule="evenodd" clip-rule="evenodd" fill="#999999"/>
		<clipPath id="SVGID_100_">
			<use xlink:href="#SVGID_99_"  overflow="visible"/>
		</clipPath>
		<rect x="111.153" y="111.428" clip-path="url(#SVGID_100_)" fill="#999999" width="23.297" height="23.342"/>
	</g>
	<circle fill="#DD0E1E" cx="131.219" cy="114.578" r="2.609"/>
	<path fill="#FFFFFF" d="M131.218,117.672c-1.706,0-3.094-1.388-3.094-3.094c0-1.707,1.388-3.095,3.094-3.095
		s3.095,1.388,3.095,3.095C134.312,116.285,132.924,117.672,131.218,117.672z M131.218,112.45c-1.171,0-2.125,0.955-2.125,2.128
		c0,1.173,0.954,2.126,2.125,2.126c1.173,0,2.128-0.954,2.128-2.126C133.346,113.405,132.391,112.45,131.218,112.45z"/>
</g>
<g>
	<g>
		<defs>
			<path id="SVGID_101_" d="M92.808,161.684c-0.247-0.665-0.826-1.16-1.567-1.16h-0.825v-2.49c0-0.497-0.332-0.83-0.826-0.83h-4.95
				v-1.66h1.651c0.495,0,0.823-0.328,0.823-0.828v-1.659h1.652c0.906,0,1.649-0.746,1.649-1.661v-0.33
				c2.393,0.994,4.122,3.4,4.122,6.139C94.537,158.943,93.879,160.523,92.808,161.684z M87.113,163.754
				c-3.216-0.411-5.771-3.23-5.771-6.551c0-0.497,0.081-0.997,0.164-1.494l3.958,3.981v0.833c0,0.91,0.743,1.657,1.649,1.657
				V163.754z M87.939,148.908c-4.538,0-8.249,3.73-8.249,8.295c0,4.562,3.711,8.296,8.249,8.296s8.249-3.733,8.249-8.296
				C96.188,152.639,92.478,148.908,87.939,148.908z"/>
		</defs>
		<use xlink:href="#SVGID_101_"  overflow="visible" fill-rule="evenodd" clip-rule="evenodd" fill="#999999"/>
		<clipPath id="SVGID_102_">
			<use xlink:href="#SVGID_101_"  overflow="visible"/>
		</clipPath>
		<rect x="76.255" y="145.45" clip-path="url(#SVGID_102_)" fill="#999999" width="23.369" height="23.506"/>
	</g>
	<circle fill="#999999" cx="94.18" cy="150.269" r="2.61"/>
	<path fill="#FFFFFF" d="M94.18,153.363c-1.705,0-3.094-1.387-3.094-3.095c0-1.707,1.389-3.095,3.094-3.095s3.093,1.388,3.093,3.095
		C97.272,151.977,95.885,153.363,94.18,153.363z M94.18,148.142c-1.172,0-2.126,0.954-2.126,2.127c0,1.174,0.954,2.128,2.126,2.128
		c1.174,0,2.125-0.954,2.125-2.128C96.305,149.096,95.354,148.142,94.18,148.142z"/>
</g>
<g>
	<g>
		<defs>
			<path id="SVGID_103_" d="M127.706,161.684c-0.247-0.665-0.825-1.16-1.567-1.16h-0.825v-2.49c0-0.497-0.33-0.83-0.824-0.83h-4.951
				v-1.66h1.65c0.495,0,0.825-0.328,0.825-0.828v-1.659h1.65c0.907,0,1.649-0.746,1.649-1.661v-0.33
				c2.393,0.994,4.125,3.4,4.125,6.139C129.438,158.943,128.779,160.523,127.706,161.684z M122.014,163.754
				c-3.218-0.411-5.774-3.23-5.774-6.551c0-0.497,0.082-0.997,0.165-1.494l3.96,3.981v0.833c0,0.91,0.742,1.657,1.649,1.657V163.754
				z M122.838,148.908c-4.535,0-8.249,3.73-8.249,8.295c0,4.562,3.714,8.296,8.249,8.296c4.537,0,8.251-3.733,8.251-8.296
				C131.089,152.639,127.375,148.908,122.838,148.908z"/>
		</defs>
		<use xlink:href="#SVGID_103_"  overflow="visible" fill-rule="evenodd" clip-rule="evenodd" fill="#999999"/>
		<clipPath id="SVGID_104_">
			<use xlink:href="#SVGID_103_"  overflow="visible"/>
		</clipPath>
		<rect x="111.153" y="145.45" clip-path="url(#SVGID_104_)" fill="#999999" width="23.371" height="23.506"/>
	</g>
	<circle fill="#DD0E1E" cx="129.274" cy="150.269" r="2.609"/>
	<path fill="#FFFFFF" d="M129.273,153.363c-1.706,0-3.092-1.387-3.092-3.095c0-1.707,1.386-3.095,3.092-3.095
		c1.708,0,3.094,1.388,3.094,3.095C132.367,151.977,130.981,153.363,129.273,153.363z M129.273,148.142
		c-1.171,0-2.125,0.954-2.125,2.127c0,1.174,0.954,2.128,2.125,2.128c1.173,0,2.129-0.954,2.129-2.128
		C131.402,149.096,130.446,148.142,129.273,148.142z"/>
</g>
<g>
	<rect x="44.043" y="8.789" fill="#DD0E1E" width="17.143" height="3.794"/>
	<rect x="44.043" y="15.426" fill="#DD0E1E" width="17.143" height="3.793"/>
	<rect x="44.043" y="22.062" fill="#DD0E1E" width="17.143" height="3.794"/>
</g>
<g>
	<rect x="8.928" y="8.789" fill="#999999" width="17.145" height="3.794"/>
	<rect x="8.928" y="15.426" fill="#999999" width="17.145" height="3.793"/>
	<rect x="8.928" y="22.062" fill="#999999" width="17.145" height="3.794"/>
</g>
<path fill="#DD0E1E" d="M130.745,233.363l-3.767-3.768c-0.021-0.018-0.044-0.033-0.066-0.052c0.742-1.123,1.175-2.47,1.175-3.917
	c0-3.935-3.19-7.125-7.128-7.125c-3.936,0-7.126,3.19-7.126,7.125c0,3.938,3.19,7.127,7.126,7.127c1.447,0,2.793-0.433,3.916-1.173
	c0.021,0.021,0.036,0.044,0.054,0.065l3.768,3.766c0.564,0.566,1.481,0.566,2.049,0C131.31,234.844,131.31,233.929,130.745,233.363
	 M120.959,230.284c-2.569,0-4.656-2.087-4.656-4.657c0-2.571,2.087-4.656,4.656-4.656c2.572,0,4.657,2.085,4.657,4.656
	C125.616,228.197,123.531,230.284,120.959,230.284"/>
<path fill="#999999" d="M95.745,233.694l-3.767-3.768c-0.021-0.016-0.044-0.033-0.066-0.052c0.742-1.123,1.176-2.47,1.176-3.917
	c0-3.935-3.191-7.125-7.129-7.125c-3.936,0-7.126,3.19-7.126,7.125c0,3.938,3.19,7.127,7.126,7.127c1.447,0,2.793-0.433,3.916-1.173
	c0.021,0.021,0.036,0.044,0.057,0.065l3.765,3.766c0.564,0.566,1.481,0.566,2.049,0C96.31,235.176,96.31,234.26,95.745,233.694
	 M85.959,230.615c-2.569,0-4.656-2.086-4.656-4.657s2.087-4.656,4.656-4.656c2.572,0,4.657,2.085,4.657,4.656
	S88.531,230.615,85.959,230.615"/>
<g>
	<path fill="#DD0E1E" d="M195.689,262.5l3.739-3.725c0.348-0.35,0.348-0.928,0-1.275l-1.929-1.929c-0.348-0.348-0.926-0.348-1.275,0
		l-3.725,3.739l-3.725-3.739c-0.35-0.348-0.928-0.348-1.275,0l-1.929,1.929c-0.348,0.348-0.348,0.926,0,1.275l3.739,3.725
		l-3.739,3.725c-0.348,0.35-0.348,0.928,0,1.275l1.929,1.929c0.348,0.348,0.926,0.348,1.275,0l3.725-3.739l3.725,3.739
		c0.174,0.173,0.404,0.253,0.63,0.253c0.241,0,0.457-0.08,0.646-0.253l1.929-1.929c0.348-0.348,0.348-0.926,0-1.275L195.689,262.5z
		 M196.854,268.8l-4.354-4.371l-4.354,4.371l-1.945-1.945l4.371-4.354l-4.371-4.354l1.945-1.945l4.354,4.371l4.354-4.371
		l1.945,1.945l-4.371,4.354l4.371,4.354L196.854,268.8z"/>
	<polygon fill="#DD0E1E" points="194.429,262.5 198.8,266.854 196.854,268.8 192.5,264.429 188.146,268.8 186.2,266.854 
		190.571,262.5 186.2,258.146 188.146,256.2 192.5,260.571 196.854,256.2 198.8,258.146 	"/>
</g>
<g>
	<path fill="#999999" d="M160.689,262.5l3.739-3.725c0.348-0.35,0.348-0.928,0-1.275l-1.929-1.929c-0.348-0.348-0.926-0.348-1.275,0
		l-3.725,3.739l-3.725-3.739c-0.35-0.348-0.928-0.348-1.275,0l-1.929,1.929c-0.348,0.348-0.348,0.926,0,1.275l3.739,3.725
		l-3.739,3.725c-0.348,0.35-0.348,0.928,0,1.275l1.929,1.929c0.348,0.348,0.926,0.348,1.275,0l3.725-3.739l3.725,3.739
		c0.174,0.173,0.404,0.253,0.63,0.253c0.241,0,0.457-0.08,0.646-0.253l1.929-1.929c0.348-0.348,0.348-0.926,0-1.275L160.689,262.5z
		 M161.854,268.8l-4.354-4.371l-4.354,4.371l-1.945-1.945l4.371-4.354l-4.371-4.354l1.945-1.945l4.354,4.371l4.354-4.371
		l1.945,1.945l-4.371,4.354l4.371,4.354L161.854,268.8z"/>
	<polygon fill="#999999" points="159.429,262.5 163.8,266.854 161.854,268.8 157.5,264.429 153.146,268.8 151.2,266.854 
		155.571,262.5 151.2,258.146 153.146,256.2 157.5,260.571 161.854,256.2 163.8,258.146 	"/>
</g>
<g>
	<path fill="#DD0E1E" d="M264.755,194.755l5.278,0.011c0.493-0.001,0.901-0.41,0.901-0.901v-2.729c0-0.491-0.408-0.9-0.901-0.901
		l-5.278,0.011l0.011-5.278c-0.001-0.493-0.41-0.901-0.902-0.901h-2.728c-0.491,0-0.9,0.408-0.901,0.901l0.011,5.278l-5.278-0.011
		c-0.493,0.001-0.901,0.41-0.901,0.901v2.729c0,0.491,0.408,0.9,0.901,0.901l5.278-0.011l-0.011,5.278
		c0.001,0.245,0.107,0.465,0.267,0.624c0.171,0.171,0.38,0.267,0.635,0.277h2.728c0.492,0,0.901-0.408,0.902-0.901L264.755,194.755z
		 M261.124,200.034l0.012-6.17l-6.17,0.012v-2.752l6.17,0.012l-0.012-6.17h2.751l-0.012,6.17l6.17-0.012v2.752l-6.17-0.012
		l0.012,6.17H261.124z"/>
	<polygon fill="#DD0E1E" points="263.863,193.864 263.875,200.034 261.124,200.034 261.136,193.864 254.966,193.876 
		254.966,191.124 261.136,191.136 261.124,184.966 263.875,184.966 263.863,191.136 270.033,191.124 270.033,193.876 	"/>
</g>
<g>
	<path fill="#999999" d="M229.755,194.755l5.278,0.011c0.493-0.001,0.901-0.41,0.901-0.902v-2.728c0-0.491-0.408-0.9-0.901-0.901
		l-5.278,0.011l0.011-5.278c-0.001-0.493-0.41-0.901-0.901-0.901h-2.728c-0.492,0-0.901,0.408-0.902,0.901l0.011,5.278l-5.278-0.011
		c-0.493,0.001-0.901,0.41-0.901,0.901v2.728c0,0.492,0.408,0.901,0.901,0.902l5.278-0.011l-0.011,5.278
		c0.001,0.245,0.107,0.465,0.267,0.624c0.171,0.171,0.38,0.267,0.636,0.277h2.728c0.491,0,0.9-0.408,0.901-0.901L229.755,194.755z
		 M226.125,200.033l0.012-6.17l-6.17,0.012v-2.751l6.17,0.012l-0.012-6.17h2.751l-0.012,6.17l6.17-0.012v2.751l-6.17-0.012
		l0.012,6.17H226.125z"/>
	<polygon fill="#999999" points="228.864,193.863 228.876,200.033 226.125,200.033 226.137,193.863 219.967,193.875 
		219.967,191.124 226.137,191.136 226.125,184.966 228.876,184.966 228.864,191.136 235.034,191.124 235.034,193.875 	"/>
</g>
<text transform="matrix(1 0 0 1 13.2549 -11)" font-family="'MyriadPro-Regular'" font-size="12">0</text>
<text transform="matrix(1 0 0 1 43.3306 -11)" font-family="'MyriadPro-Regular'" font-size="12">-35</text>
<text transform="matrix(1 0 0 1 -26.3462 56.2539)" font-family="'MyriadPro-Regular'" font-size="12">-35</text>
<text transform="matrix(1 0 0 1 78.3262 -11)" font-family="'MyriadPro-Regular'" font-size="12">-70</text>
<text transform="matrix(1 0 0 1 -26.3467 91.3066)" font-family="'MyriadPro-Regular'" font-size="12">-70</text>
<text transform="matrix(1 0 0 1 110.2446 -11)" font-family="'MyriadPro-Regular'" font-size="12">-105</text>
<text transform="matrix(1 0 0 1 -32.5034 126.3594)" font-family="'MyriadPro-Regular'" font-size="12">-105</text>
<text transform="matrix(1 0 0 1 145.2402 -11)" font-family="'MyriadPro-Regular'" font-size="12">-140</text>
<text transform="matrix(1 0 0 1 -32.5034 161.4121)" font-family="'MyriadPro-Regular'" font-size="12">-140</text>
<text transform="matrix(1 0 0 1 180.2354 -11)" font-family="'MyriadPro-Regular'" font-size="12">-175</text>
<text transform="matrix(1 0 0 1 -32.5029 196.4648)" font-family="'MyriadPro-Regular'" font-size="12">-175</text>
<text transform="matrix(1 0 0 1 215.2305 -11)" font-family="'MyriadPro-Regular'" font-size="12">-210</text>
<text transform="matrix(1 0 0 1 -32.5034 231.5176)" font-family="'MyriadPro-Regular'" font-size="12">-210</text>
<text transform="matrix(1 0 0 1 250.2266 -11)" font-family="'MyriadPro-Regular'" font-size="12">-245</text>
<text transform="matrix(1 0 0 1 -32.5029 266.5703)" font-family="'MyriadPro-Regular'" font-size="12">-245</text>
<g>
	<path fill="#DD0E1E" d="M251.898,9.123v1.832h2.29v15.12h2.289v-15.12c0.216-0.913,0.917-1.703,2.292-1.808V9.123H251.898z"/>
	<path fill="#DD0E1E" d="M261.519,12.006v5.823h-2.749v-5.823c0-0.666,0.311-1.051,0.976-1.051h0.618
		C261.032,10.955,261.519,11.34,261.519,12.006"/>
	<polygon fill="#DD0E1E" points="268.467,18.97 270.582,8.939 273.103,8.939 273.103,26.005 270.82,26.005 271.057,14.835 
		269.348,22.917 267.587,22.917 265.877,14.835 266.114,26.005 263.832,26.005 263.832,8.939 266.353,8.939 	"/>
	<rect x="258.77" y="19.662" fill="#DD0E1E" width="2.749" height="6.413"/>
</g>
<g>
	<path fill="#999999" d="M216.898,9.123v1.832h2.29v15.12h2.289v-15.12c0.216-0.913,0.917-1.703,2.292-1.808V9.123H216.898z"/>
	<path fill="#999999" d="M226.519,12.006v5.823h-2.749v-5.823c0-0.666,0.311-1.051,0.976-1.051h0.618
		C226.032,10.955,226.519,11.34,226.519,12.006"/>
	<polygon fill="#999999" points="233.467,18.97 235.582,8.939 238.103,8.939 238.103,26.005 235.82,26.005 236.057,14.835 
		234.348,22.917 232.587,22.917 230.877,14.835 231.114,26.005 228.832,26.005 228.832,8.939 231.353,8.939 	"/>
	<rect x="223.77" y="19.662" fill="#999999" width="2.749" height="6.413"/>
</g>
<g>
	<path fill="#DD0E1E" d="M267.761,46.023h-3.651c-0.668,0-1.604,0.387-2.077,0.86l-5.654,5.654c-0.473,0.473-0.473,1.248,0,1.721
		l4.363,4.363c0.473,0.473,1.247,0.473,1.72,0l5.656-5.654c0.473-0.473,0.859-1.408,0.859-2.077v-3.65
		C268.977,46.57,268.43,46.023,267.761,46.023z M266.144,50.071c-0.671,0-1.215-0.543-1.215-1.214c0-0.67,0.544-1.214,1.215-1.214
		s1.214,0.543,1.214,1.214C267.357,49.527,266.814,50.071,266.144,50.071z"/>
</g>
<g>
	<path fill="#999999" d="M232.761,46.023h-3.651c-0.668,0-1.604,0.387-2.077,0.86l-5.654,5.654c-0.473,0.473-0.473,1.248,0,1.721
		l4.363,4.363c0.473,0.473,1.247,0.473,1.72,0l5.656-5.654c0.473-0.473,0.859-1.408,0.859-2.077v-3.65
		C233.977,46.571,233.43,46.023,232.761,46.023z M231.144,50.071c-0.671,0-1.215-0.543-1.215-1.214c0-0.67,0.544-1.214,1.215-1.214
		s1.214,0.543,1.214,1.214C232.357,49.528,231.814,50.071,231.144,50.071z"/>
</g>
<g>
	<rect x="228.982" y="80.549" fill="#999999" width="6.25" height="2.831"/>
	<rect x="228.982" y="85.501" fill="#999999" width="6.25" height="2.831"/>
	<rect x="219.587" y="90.453" fill="#999999" width="15.646" height="2.831"/>
	<rect x="219.382" y="80.549" fill="#999999" width="7" height="7.65"/>
</g>
<g>
	<rect x="264.193" y="80.549" fill="#DD0E1E" width="6.25" height="2.831"/>
	<rect x="264.193" y="85.501" fill="#DD0E1E" width="6.25" height="2.831"/>
	<rect x="254.798" y="90.453" fill="#DD0E1E" width="15.646" height="2.831"/>
	<rect x="254.593" y="80.549" fill="#DD0E1E" width="7" height="7.65"/>
</g>
</svg>
